<svg width="40" height="40" viewBox="0 0 40 40" fill="none" xmlns="http://www.w3.org/2000/svg">
<rect width="40" height="40" rx="8" fill="url(#paint0_linear_5691_12236)"/>
<path d="M30.6805 17.4563C30.5583 17.3051 30.4063 17.1883 30.2431 17.0861C29.8136 16.8173 29.3437 16.6404 28.8633 16.4899C27.8681 16.1781 26.8465 15.9893 25.8162 15.8409C24.6529 15.6733 23.4832 15.5766 22.31 15.5182C22.2239 15.5139 22.2071 15.4869 22.2074 15.4069C22.2103 14.5986 22.2091 13.7902 22.2091 12.9819C22.2091 12.8541 22.2093 12.854 22.3347 12.854C24.2829 12.854 26.2311 12.854 28.1793 12.8539C28.2929 12.8539 28.2931 12.8537 28.2931 12.7413C28.2931 11.4648 28.2931 10.1883 28.2931 8.91181C28.2931 8.79694 28.2929 8.79688 28.1747 8.79688C25.453 8.79688 22.7313 8.79688 20.0096 8.79688C17.2879 8.79688 14.5662 8.79688 11.8445 8.79688C11.7261 8.79688 11.7259 8.79694 11.7259 8.91154C11.7258 10.1881 11.7258 11.4645 11.7259 12.7411C11.7259 12.8537 11.726 12.8539 11.8394 12.8539C12.9502 12.854 14.0609 12.8539 15.1717 12.854C16.0179 12.854 16.8641 12.8541 17.7103 12.8538C17.7641 12.8538 17.8103 12.8461 17.81 12.9304C17.8071 13.7678 17.8079 14.6053 17.809 15.4427C17.8091 15.4924 17.7979 15.5144 17.7423 15.5165C17.5419 15.5241 17.3417 15.5368 17.1414 15.5486C16.4943 15.5869 15.8484 15.6412 15.2041 15.7125C14.6295 15.776 14.0564 15.8525 13.4862 15.9496C12.6351 16.0945 11.7913 16.2713 10.9709 16.545C10.5181 16.6961 10.0755 16.8713 9.67681 17.1404C9.51194 17.2517 9.36114 17.3791 9.25314 17.5495C9.10787 17.7787 9.10874 18.0089 9.25327 18.2383C9.31421 18.335 9.39121 18.4181 9.47734 18.4927C9.74887 18.7278 10.0655 18.8859 10.3931 19.0242C11.0703 19.31 11.7782 19.4936 12.4943 19.6481C13.1761 19.7953 13.8644 19.9053 14.5558 19.9959C15.037 20.0589 15.5195 20.1104 16.0029 20.1537C16.5647 20.2039 17.1274 20.24 17.6906 20.2699C17.8084 20.2761 17.8083 20.2788 17.8083 20.399C17.8083 23.1585 17.8083 25.9179 17.8084 28.6774C17.8084 28.7965 17.8085 28.7967 17.9247 28.7967C19.3089 28.7967 20.6929 28.7969 22.0771 28.7964C22.2206 28.7963 22.207 28.8132 22.207 28.6651C22.2073 25.9172 22.2072 23.1694 22.2072 20.4215C22.2072 20.3925 22.2089 20.3633 22.207 20.3343C22.2041 20.2915 22.2191 20.2695 22.2653 20.2691C22.3175 20.2687 22.3697 20.2625 22.4219 20.2603C22.8954 20.2403 23.3681 20.2062 23.8401 20.1663C24.5409 20.1069 25.2398 20.03 25.9357 19.9274C26.7811 19.8027 27.6205 19.6473 28.4447 19.419C29.0165 19.2605 29.5787 19.0748 30.1001 18.7841C30.3144 18.6646 30.5152 18.5263 30.6743 18.3359C30.9131 18.0497 30.9147 17.7461 30.6805 17.4563ZM29.5903 18.0959C29.3461 18.3101 29.0523 18.4378 28.7526 18.5513C28.0762 18.8075 27.3727 18.9599 26.6635 19.089C25.8999 19.2281 25.1302 19.3244 24.3579 19.3989C23.6576 19.4664 22.9555 19.5081 22.2531 19.5462C21.3467 19.5953 20.4398 19.5965 19.6042 19.5952C18.5121 19.5837 17.4925 19.5465 16.4747 19.4699C15.4573 19.3933 14.4434 19.2847 13.4382 19.1069C12.6454 18.9667 11.8587 18.8005 11.1083 18.4973C10.9087 18.4165 10.7162 18.3213 10.5383 18.1987C10.4541 18.1408 10.376 18.0759 10.31 17.9975C10.1357 17.7904 10.1341 17.5824 10.3072 17.3752C10.4365 17.2205 10.605 17.1167 10.7809 17.0251C11.248 16.7817 11.7495 16.6351 12.2574 16.5089C13.1725 16.2814 14.1027 16.1417 15.0384 16.0345C15.9252 15.9329 16.8147 15.8659 17.7062 15.8232C17.7937 15.819 17.8121 15.844 17.8119 15.9269C17.8091 16.8457 17.8112 17.7644 17.8083 18.6832C17.8081 18.7675 17.8267 18.7935 17.9164 18.7989C19.1801 18.8745 20.4442 18.8775 21.7087 18.8252C21.8451 18.8195 21.9811 18.8018 22.1175 18.7995C22.1943 18.7983 22.2063 18.7667 22.2046 18.6997C22.2003 18.5341 22.2032 18.3683 22.2032 18.2026C22.2032 17.4467 22.2032 16.6907 22.2032 15.9347C22.2032 15.8237 22.2034 15.8221 22.3179 15.8272C23.0904 15.8619 23.8613 15.9185 24.6305 15.9986C25.5499 16.0944 26.4645 16.2218 27.3679 16.4208C27.9441 16.5477 28.514 16.6975 29.0535 16.9435C29.2444 17.0305 29.4283 17.1301 29.5873 17.2695C29.8962 17.5405 29.8992 17.8249 29.5903 18.0959Z" fill="#FFFDFD"/>
<path d="M26.2673 31.1984H13.734C13.5131 31.1984 13.334 31.0194 13.334 30.7984C13.334 30.5775 13.5131 30.3984 13.734 30.3984H26.2673C26.4883 30.3984 26.6673 30.5775 26.6673 30.7984C26.6673 31.0194 26.4883 31.1984 26.2673 31.1984Z" fill="#FFFDFD"/>
<defs>
<linearGradient id="paint0_linear_5691_12236" x1="20" y1="-3.46452e-07" x2="31.5" y2="46.5" gradientUnits="userSpaceOnUse">
<stop stop-color="#0CD18A"/>
<stop offset="1" stop-color="#087561"/>
</linearGradient>
</defs>
</svg>
