<svg width="28" height="24" viewBox="0 0 28 24" fill="none" xmlns="http://www.w3.org/2000/svg">
<path d="M27.3337 5.29204V18.708C27.328 20.117 26.763 21.466 25.7628 22.4584C24.7627 23.4508 23.4093 24.0054 22.0003 24H6.00033C4.59137 24.0054 3.23799 23.4508 2.23783 22.4584C1.23767 21.466 0.672639 20.117 0.666992 18.708V5.29204C0.672639 3.88308 1.23767 2.53406 2.23783 1.54165C3.23799 0.549246 4.59137 -0.00527697 6.00033 3.78554e-05H22.0003C23.4093 -0.00527697 24.7627 0.549246 25.7628 1.54165C26.763 2.53406 27.328 3.88308 27.3337 5.29204Z" fill="#2C3953"/>
<g clip-path="url(#clip0_4870_1689)">
<path d="M14.8562 3.44434C12.9753 3.45349 11.1506 4.08633 9.66799 5.24371C8.18534 6.40108 7.12852 8.0176 6.66309 9.84L6.09376 8.979C6.03986 8.88886 5.96827 8.81057 5.88329 8.74885C5.79831 8.68713 5.70171 8.64326 5.59932 8.61988C5.49693 8.59651 5.39086 8.59411 5.28752 8.61284C5.18418 8.63157 5.0857 8.67103 4.99802 8.72885C4.91034 8.78668 4.83529 8.86165 4.77737 8.94927C4.71946 9.03689 4.67989 9.13532 4.66105 9.23865C4.64221 9.34197 4.6445 9.44804 4.66776 9.55046C4.69103 9.65287 4.7348 9.74952 4.79643 9.83456L6.50754 12.4277C6.6264 12.594 6.80164 12.7115 7.00065 12.7582C7.20386 12.7985 7.41478 12.7581 7.58865 12.6454L10.1553 10.9164C10.2438 10.8612 10.3203 10.7887 10.3802 10.7033C10.4401 10.6178 10.4822 10.5212 10.504 10.4192C10.5258 10.3172 10.5268 10.2118 10.507 10.1093C10.4873 10.0069 10.4471 9.90948 10.3889 9.82288C10.3307 9.73629 10.2556 9.66229 10.1683 9.60529C10.0809 9.54829 9.98291 9.50946 9.88021 9.4911C9.7775 9.47274 9.67215 9.47523 9.57043 9.49843C9.4687 9.52162 9.37269 9.56505 9.28809 9.62611L8.12065 10.4132C8.43136 9.15197 9.09033 8.00345 10.0224 7.0987C10.9544 6.19395 12.122 5.5694 13.392 5.29631C14.6619 5.02323 15.983 5.1126 17.2046 5.55423C18.4262 5.99587 19.499 6.77198 20.3007 7.79401C21.1024 8.81605 21.6007 10.0429 21.7387 11.3345C21.8767 12.6261 21.6489 13.9305 21.0813 15.0988C20.5136 16.2672 19.629 17.2525 18.5283 17.9422C17.4276 18.632 16.1552 18.9985 14.8562 18.9999C13.7427 18.9969 12.6464 18.7251 11.6604 18.2075C10.6745 17.69 9.8281 16.942 9.19321 16.0272C9.13634 15.9399 9.06252 15.8649 8.97611 15.8067C8.8897 15.7485 8.79248 15.7082 8.6902 15.6883C8.58793 15.6683 8.48269 15.6691 8.38075 15.6907C8.2788 15.7122 8.18221 15.754 8.09673 15.8136C8.01125 15.8732 7.93861 15.9493 7.88312 16.0375C7.82764 16.1257 7.79044 16.2241 7.77373 16.327C7.75703 16.4298 7.76116 16.535 7.78588 16.6362C7.81061 16.7374 7.85542 16.8327 7.91765 16.9162C8.94981 18.4042 10.4321 19.5219 12.1466 20.105C13.8611 20.6881 15.7174 20.7058 17.4428 20.1556C19.1681 19.6054 20.6715 18.5162 21.7319 17.0482C22.7923 15.5802 23.3538 13.8107 23.334 11.9999C23.3416 9.74193 22.4534 7.57313 20.8641 5.96922C19.2747 4.36532 17.1141 3.4573 14.8562 3.44434Z" fill="url(#paint0_linear_4870_1689)"/>
<path d="M14.9328 7.33325C14.6854 7.33325 14.4482 7.43153 14.2732 7.60647C14.0983 7.7814 14 8.01867 14 8.26606V12.9768C14.004 13.2233 14.1017 13.4592 14.2733 13.6363L17.0717 16.4599C17.2474 16.6327 17.4835 16.7301 17.7299 16.7313C17.9763 16.7326 18.2134 16.6375 18.3907 16.4664C18.5664 16.2922 18.6656 16.0554 18.6667 15.8081C18.6677 15.5607 18.5705 15.3231 18.3963 15.1474L15.8656 12.5934V8.26606C15.8656 8.01867 15.7673 7.7814 15.5924 7.60647C15.4175 7.43153 15.1802 7.33325 14.9328 7.33325Z" fill="url(#paint1_linear_4870_1689)"/>
</g>
<defs>
<linearGradient id="paint0_linear_4870_1689" x1="4.64844" y1="12" x2="23.3345" y2="12" gradientUnits="userSpaceOnUse">
<stop stop-color="#566885"/>
<stop offset="1" stop-color="#B2BACB"/>
</linearGradient>
<linearGradient id="paint1_linear_4870_1689" x1="14" y1="12.0323" x2="18.6667" y2="12.0323" gradientUnits="userSpaceOnUse">
<stop stop-color="#566885"/>
<stop offset="1" stop-color="#B2BACB"/>
</linearGradient>
<clipPath id="clip0_4870_1689">
<rect width="18.6667" height="18.6667" fill="white" transform="translate(4.66699 2.66663)"/>
</clipPath>
</defs>
</svg>
